<?xml version="1.0" standalone="no"?>
<!DOCTYPE svg PUBLIC "-//W3C//DTD SVG 20010904//EN"
 "http://www.w3.org/TR/2001/REC-SVG-20010904/DTD/svg10.dtd">
<svg version="1.0" xmlns="http://www.w3.org/2000/svg"
 width="71.000000pt" height="71.000000pt" viewBox="0 0 71.000000 71.000000"
 preserveAspectRatio="xMidYMid meet">
<metadata>
Created by potrace 1.14, written by Peter Selinger 2001-2017
</metadata>
<g transform="translate(0.000000,71.000000) scale(0.100000,-0.100000)"
fill="#000000" stroke="none">
<path d="M303 648 c-5 -7 -40 -85 -78 -173 -37 -88 -78 -182 -90 -210 -13 -27
-35 -79 -50 -115 -15 -36 -34 -80 -42 -97 l-13 -33 78 0 78 0 24 65 c13 36 27
66 30 66 18 4 233 4 239 -1 5 -3 20 -32 34 -65 l25 -60 81 -3 80 -3 -43 98
c-23 54 -45 105 -49 113 -3 8 -46 107 -95 220 l-89 205 -55 3 c-36 2 -58 -1
-65 -10z m95 -276 c18 -48 32 -90 32 -93 0 -3 -33 -5 -74 -5 l-74 0 25 66 c14
36 29 77 35 93 5 15 13 27 16 27 4 0 22 -40 40 -88z"/>
</g>
</svg>
